<?xml version="1.0" encoding="utf-8"?>
<!-- Generator: Adobe Illustrator 16.0.4, SVG Export Plug-In . SVG Version: 6.00 Build 0)  -->
<!DOCTYPE svg PUBLIC "-//W3C//DTD SVG 1.1//EN" "http://www.w3.org/Graphics/SVG/1.1/DTD/svg11.dtd">
<svg version="1.1" id="Layer_1" xmlns="http://www.w3.org/2000/svg" xmlns:xlink="http://www.w3.org/1999/xlink" x="0px" y="0px"
	 width="1050px" height="276px" viewBox="0 0 1050 276" enable-background="new 0 0 1050 276" xml:space="preserve">
<path fill-rule="evenodd" clip-rule="evenodd" fill="#0E4C8C" d="M836.437,96.99c0.547-2.668,1.113-5.115,1.113-5.115
	s-8.338-0.71-11.959-1.208c-28.458-3.625-60.128-3.895-87.899,3.599c-15.939,4.3-30.719,11.021-41.365,24.236
	c-15.855,19.679-15.365,49.895,16.383,59.863c26.463,8.311,51.936,6.021,74.106-15.8c0,5.562,0.047,9.997-0.018,14.432
	c-0.01,1.783-0.041,3.565-0.041,3.565h41.73c0,0-0.375-1.766-0.686-3.581c-1.396-8.596-1.465-17.242-0.479-25.894
	C829.393,132.895,833.394,115.021,836.437,96.99z M787.202,121.321c-1.349,8.216-2.363,16.383-6.602,23.774
	c-6.522,11.373-20.074,17.884-33.052,15.717c-11.143-1.861-17.357-12.443-14.238-23.621c4.465-15.995,20.457-25.867,34.967-27.971
	c1.973-0.285,3.983-0.301,4.773-0.357c1.698-0.171,2.194-0.234,2.692-0.27c6.432-0.446,13.682-0.875,13.682-0.875
	S788.337,114.409,787.202,121.321z"/>
<path fill-rule="evenodd" clip-rule="evenodd" fill="#129082" d="M105.357,130.418c-3.236,2.383-4.684,5.305-4.684,9.667
	c0,11.751,0,40.335,0,40.335H66.558v-70.021h28.786c0,0,0.197,1.747,0.38,3.122c0.275,2.075,0.727,3.826,1.236,6.366
	c8.306-7.289,17.743-10.215,28.564-11.084l0.011-0.008c7.164-0.646,13.252,0.555,19.549,1.863
	c10.819,2.25,22.221,11.041,22.854,24.256c0.672,13.99,0.395,27.94,0.395,41.963c0,1.308,0,3.543,0,3.543h-32.39
	c0,0-0.01-3.035,0.001-4.363c0.082-10.662,0.036-21.324,0.036-31.987C135.979,127.748,118.938,120.421,105.357,130.418
	C102.122,132.801,108.771,127.905,105.357,130.418z"/>
<path fill-rule="evenodd" clip-rule="evenodd" fill="#0E4C8C" d="M125.259,106.688c9.075-14.552,17.856-24.866,29.796-34.246
	c22.638-17.785,48.414-29.183,75.927-37.108c42.195-12.154,85.313-15.657,128.958-13.866c21.95,0.9,43.829,2.875,65.243,8.253
	c1.115,0.279,2.203,0.664,3.83,1.16c-8.053,12.831-15.983,25.403-23.826,38.028c-0.419,0.674-0.812,1.229-0.812,1.229
	s-2.083-0.356-3-0.572c-30.26-7.115-60.956-8.968-91.793-6.029c-25.459,2.426-50.009,8.722-69.327,26.852
	c-21.738,20.402-29.915,45.713-23.949,75.144c1.87,9.223,6.802,17.244,14.138,22.816c6.264,4.758,20.963,12.061,28.211,13.939
	c26.615,6.902,53.657,7.055,80.851,4.521c13.098-1.221,26.169-2.508,39.029-5.367c1.313-0.264,2.686-0.57,2.686-0.57
	s0.191,1.461,0.323,3.047c1.27,10.74,2.486,21.498,4.26,32.16c0.41,2.434,0.801,4.746,0.801,4.746s-2.391,0.4-4.663,0.781
	c-15.121,2.533-30.184,5.219-45.449,6.383c-31.769,2.428-63.573,2.926-95.299-0.537c-24.527-2.676-48.621-7.535-71.296-17.666
	c-17.008-7.6-32.422-17.529-43.701-32.842c-0.977-1.326-1.772-2.785-2.651-4.182l-2.697-3.893
	c-9.417-17.246-10.798-35.469-6.587-54.362c0.753-3.38,1.657-6.861,2.821-10.123C118.737,119.749,122.655,110.864,125.259,106.688z"
	/>
<ellipse fill-rule="evenodd" clip-rule="evenodd" fill="#129082" cx="36.697" cy="92.119" rx="18.594" ry="11.705"/>
<rect x="19.963" y="110.377" fill-rule="evenodd" clip-rule="evenodd" fill="#129082" width="33.468" height="70.185"/>
<path fill-rule="evenodd" clip-rule="evenodd" fill="#0E4C8C" d="M413.584,90.33h38.781c0,0,0.163,11.258,0.163,14.895
	c15.897-13.312,34.351-17.47,54.067-16.986c8.46,0.207,16.754,1.727,24.564,5.583c9.952,4.915,15.06,12.565,15.157,23.674
	c0.111,12.589-3.275,24.681-5.143,36.984c-1.145,7.549-2.861,15.01-4.087,22.548c-0.306,1.844-0.587,3.535-0.587,3.535h-44.875
	c0,0,0.337-1.975,0.772-3.966c2.553-13.723,4.84-27.494,7.339-41.227c0.751-4.128,1.014-8.259,0.836-12.421
	c-0.338-7.93-3.687-11.566-11.69-12.881c-13.82-2.269-28.325,5.889-34.708,18.961c-3.295,6.749-4.111,14.005-5.498,21.139
	c-1.68,8.643-2.941,17.379-4.033,26.119c-0.202,2.138-0.425,4.275-0.425,4.275H398.5"/>
<path fill-rule="evenodd" clip-rule="evenodd" fill="#0E4C8C" d="M615.429,154.945l38.618-64.523c0,0,33.486,0.034,50.091,0.034
	c-4.539,5.81-71.451,90.106-71.451,90.106h-45.499l-38.906-90.141h46.406L615.429,154.945z"/>
<path fill-rule="evenodd" clip-rule="evenodd" fill="#0E4C8C" d="M890.543,182.376c-15.042,0.094-29.939-1.339-44.448-5.631
	c-1.628-0.481-4.135-1.289-4.135-1.289l7.604-19.188c0,0,5.515,1.456,7.761,2.076c11.597,3.199,23.439,4.841,35.492,4.829
	c3.698-0.003,7.229-0.678,10.743-1.886c2.873-0.988,5.412-2.271,5.675-5.485c0.267-3.271-2.351-5.133-4.798-6.451
	c-5.58-3.007-11.72-4.604-17.773-6.408c-9.574-2.854-18.979-6.159-26.806-12.705c-8.814-7.371-9.174-19.225-0.713-26.934
	c8.704-7.93,19.561-10.754,30.784-12.889c19.964-3.797,39.803-2.438,59.61,0.932c2.98,0.507,5.729,0.98,5.729,0.98l-7.316,19.641
	c0,0-3.962-0.842-5.984-1.252c-12.094-2.451-24.318-3.975-36.663-1.578c-0.489,0.094-1.022,0.035-1.482,0.197
	c-2.726,0.961-5.61,2.162-6.12,5.252c-0.563,3.41,2.45,4.975,4.907,6.185c6.132,3.019,12.849,4.423,19.333,6.48
	c9.021,2.862,17.804,6.105,25.613,11.837c10.926,8.018,9.919,23.184-0.963,30.824c-12.034,8.451-25.955,10.672-40.09,11.938
	C901.215,182.327,895.875,182.376,890.543,182.376z"/>
<path fill-rule="evenodd" clip-rule="evenodd" fill="#0E4C8C" d="M394.262,96.99c0.546-2.668,1.113-5.115,1.113-5.115
	s-8.338-0.71-11.959-1.208c-28.458-3.625-60.128-3.895-87.899,3.599c-15.94,4.3-30.719,11.021-41.365,24.236
	c-15.855,19.679-15.365,49.895,16.382,59.863c26.463,8.311,51.936,6.021,74.107-15.8c0,5.562,0.046,9.997-0.019,14.432
	c-0.009,1.783-0.04,3.565-0.04,3.565h41.73c0,0-0.375-1.766-0.686-3.581c-1.396-8.596-1.464-17.242-0.479-25.894
	C387.218,132.895,391.218,115.021,394.262,96.99z M345.027,121.321c-1.349,8.216-2.363,16.383-6.602,23.774
	c-6.522,11.373-20.073,17.884-33.051,15.717c-11.143-1.861-17.358-12.443-14.238-23.621c4.464-15.995,20.457-25.867,34.966-27.971
	c1.973-0.285,3.983-0.301,4.773-0.357c1.698-0.171,2.194-0.234,2.692-0.27c6.432-0.446,13.682-0.875,13.682-0.875
	S346.162,114.409,345.027,121.321z"/>
<line fill="none" stroke="#0E4C8C" stroke-width="3.5" stroke-miterlimit="10" x1="19.963" y1="191.475" x2="1001.344" y2="191.475"/>
<g>
	<path fill="none" stroke="#0E4C8C" stroke-width="3.5" stroke-miterlimit="10" d="M1009.972,157.02
		c0,4.745-3.871,8.613-8.628,8.613c-4.76,0-8.63-3.868-8.63-8.613c0-4.755,3.87-8.617,8.63-8.617
		C1006.101,148.402,1009.972,152.265,1009.972,157.02z"/>
	<path fill="none" stroke="#0E4C8C" stroke-width="3.5" stroke-miterlimit="10" d="M1016.446,157.02
		c0,8.316-6.758,15.072-15.103,15.072c-8.337,0-15.105-6.756-15.105-15.072c0-8.336,6.769-15.082,15.105-15.082
		C1009.688,141.938,1016.446,148.684,1016.446,157.02z"/>
	<path fill="none" stroke="#0E4C8C" stroke-width="3.5" stroke-miterlimit="10" d="M1022.922,157.02
		c0,11.883-9.655,21.532-21.578,21.532c-11.91,0-21.575-9.649-21.575-21.532c0-11.907,9.665-21.541,21.575-21.541
		C1013.267,135.479,1022.922,145.112,1022.922,157.02z"/>
	<path fill="none" stroke="#0E4C8C" stroke-width="3.5" stroke-miterlimit="10" d="M1029.391,157.02
		c0,15.45-12.552,27.996-28.047,27.996c-15.481,0-28.049-12.546-28.049-27.996c0-15.473,12.567-28,28.049-28
		C1016.839,129.02,1029.391,141.547,1029.391,157.02z"/>
	<path fill="none" stroke="#0E4C8C" stroke-width="3.5" stroke-miterlimit="10" d="M1035.862,157.02
		c0,19.016-15.441,34.455-34.519,34.455c-19.05,0-34.521-15.439-34.521-34.455c0-19.044,15.471-34.464,34.521-34.464
		C1020.421,122.556,1035.862,137.976,1035.862,157.02z"/>
</g>
<g>
	<defs>
		<path id="SVGID_1_" d="M125.259,106.718c9.075-14.551,17.856-24.865,29.796-34.246c22.638-17.785,48.414-29.182,75.927-37.107
			c42.195-12.154,85.313-15.658,128.958-13.867c21.95,0.9,43.829,2.875,65.243,8.254c1.115,0.279,2.203,0.664,3.83,1.16
			c-8.053,12.83-15.983,25.402-23.826,38.027c-0.419,0.674-0.812,1.229-0.812,1.229s-2.083-0.355-3-0.572
			c-30.26-7.115-60.956-8.967-91.793-6.029c-25.459,2.426-50.009,8.723-69.327,26.852c-21.738,20.402-29.915,45.713-23.949,75.145
			c1.87,9.223,6.802,17.244,14.138,22.816c6.264,4.758,20.963,12.061,28.211,13.939c26.615,6.902,53.657,7.055,80.851,4.521
			c13.098-1.221,26.169-2.508,39.029-5.367c1.313-0.264,2.686-0.57,2.686-0.57s0.191,1.461,0.323,3.047
			c1.27,10.74,2.486,21.498,4.26,32.16c0.41,2.434,0.801,4.746,0.801,4.746s-2.391,0.4-4.663,0.781
			c-15.121,2.533-30.184,5.219-45.449,6.383c-31.769,2.428-63.573,2.926-95.299-0.537c-24.527-2.676-48.621-7.535-71.296-17.666
			c-17.008-7.6-32.422-17.529-43.701-32.842c-0.977-1.326-1.772-2.785-2.651-4.182l-2.697-3.893
			c-9.417-17.246-10.798-35.469-6.587-54.361c0.753-3.381,1.657-6.861,2.821-10.123
			C118.737,119.778,122.655,110.894,125.259,106.718z"/>
	</defs>
	<clipPath id="SVGID_2_">
		<use xlink:href="#SVGID_1_"  overflow="visible"/>
	</clipPath>
	<path clip-path="url(#SVGID_2_)" fill-rule="evenodd" clip-rule="evenodd" fill="#FEED6F" d="M105.357,130.448
		c-3.236,2.383-4.684,5.305-4.684,9.667c0,11.751,0,40.335,0,40.335H66.558v-70.021h28.786c0,0,0.197,1.747,0.38,3.122
		c0.275,2.075,0.727,3.826,1.236,6.366c8.306-7.289,17.743-10.215,28.564-11.084l0.011-0.008c7.164-0.646,13.252,0.555,19.549,1.863
		c10.819,2.25,22.221,11.041,22.854,24.256c0.672,13.99,0.395,27.94,0.395,41.963c0,1.308,0,3.543,0,3.543h-32.39
		c0,0-0.01-3.035,0.001-4.363c0.082-10.662,0.036-21.324,0.036-31.987C135.979,127.778,118.938,120.451,105.357,130.448
		C102.122,132.831,108.771,127.936,105.357,130.448z"/>
</g>
<g>
	<defs>
		<path id="SVGID_3_" d="M125.259,106.718c9.075-14.551,17.856-24.865,29.796-34.246c22.638-17.785,48.414-29.182,75.927-37.107
			c42.195-12.154,85.313-15.658,128.958-13.867c21.95,0.9,43.829,2.875,65.243,8.254c1.115,0.279,2.203,0.664,3.83,1.16
			c-8.053,12.83-15.983,25.402-23.826,38.027c-0.419,0.674-0.812,1.229-0.812,1.229s-2.083-0.355-3-0.572
			c-30.26-7.115-60.956-8.967-91.793-6.029c-25.459,2.426-50.009,8.723-69.327,26.852c-21.738,20.402-29.915,45.713-23.949,75.145
			c1.87,9.223,6.802,17.244,14.138,22.816c6.264,4.758,20.963,12.061,28.211,13.939c26.615,6.902,53.657,7.055,80.851,4.521
			c13.098-1.221,26.169-2.508,39.029-5.367c1.313-0.264,2.686-0.57,2.686-0.57s0.191,1.461,0.323,3.047
			c1.27,10.74,2.486,21.498,4.26,32.16c0.41,2.434,0.801,4.746,0.801,4.746s-2.391,0.4-4.663,0.781
			c-15.121,2.533-30.184,5.219-45.449,6.383c-31.769,2.428-63.573,2.926-95.299-0.537c-24.527-2.676-48.621-7.535-71.296-17.666
			c-17.008-7.6-32.422-17.529-43.701-32.842c-0.977-1.326-1.772-2.785-2.651-4.182l-2.697-3.893
			c-9.417-17.246-10.798-35.469-6.587-54.361c0.753-3.381,1.657-6.861,2.821-10.123
			C118.737,119.778,122.655,110.894,125.259,106.718z"/>
	</defs>
	<clipPath id="SVGID_4_">
		<use xlink:href="#SVGID_3_"  overflow="visible"/>
	</clipPath>
	
		<line clip-path="url(#SVGID_4_)" fill="none" stroke="#FEED6F" stroke-width="3.5" stroke-miterlimit="10" x1="19.963" y1="191.505" x2="1001.344" y2="191.505"/>
</g>
</svg>
